<svg xmlns="http://www.w3.org/2000/svg" version="1" viewBox="0 0 1024 1024"><path d="M801 333l-28-27-65-66-80-79-68-69-33-33-1-1c-7-7-20-7-28 0l-28 28-65 65-79 80-69 68-33 34h-1c-7 7-8 21 0 28 8 8 21 8 29 0l27-27 65-65 80-80 68-68 34-34h-28l27 27 66 66 79 79 69 68 33 34c8 8 21 8 29 0 7-8 8-20 0-28zM772 663l-27 27-65 66-80 79-68 68-34 34h28l-27-27-66-66-79-79-69-68-33-34c-8-8-21-8-29 0-7 8-8 20 0 28l28 27 65 66 80 79 68 69 33 33 1 1c7 7 20 7 28 0l28-28 65-65 79-80 69-68 33-34h1c7-7 8-21 0-28-8-8-21-8-29 0z"/></svg>